<svg xmlns="http://www.w3.org/2000/svg" width="64" height="64" viewBox="0 0 64 64">
  <path fill="#31C27C" fill-rule="evenodd" d="M44.0791053,8.48954355 C43.8588834,5.77050373 42.7329514,3.7700491 41.7565921,2 L41.7565921,2 C41.7572286,2.00190944 46.8815239,16.4143481 29.7965085,16.5893799 L43.3248773,40.8341517 C43.4948172,41.1091107 43.6526641,41.3897981 43.795872,41.6800327 L43.8149664,41.7131297 L43.810511,41.7099473 C44.1993999,42.5042735 44.488998,43.3546099 44.6557556,44.2526823 C45.7893253,50.3393344 41.0411893,56.3273322 34.0501,57.6282961 C27.0602837,58.9286234 20.4765412,55.0486452 19.3442444,48.9626296 C18.2113111,42.8759775 22.9600837,36.8879796 29.9499,35.5870158 C32.3519731,35.1408438 34.7056738,35.3050555 36.8073286,35.9606292 L21.9098927,14.3954355 C21.9098927,14.3954355 21.253046,13.2574104 21.9098927,12.3376978 C21.9098927,12.3376978 24.6696672,7.47626841 32.8637025,6.38088743 C32.8637025,6.38088743 33.8998909,6.29623568 35.2963266,5.94999091 C34.2149482,5.82269504 33.1157483,5.7558647 32,5.7558647 C16.5360975,5.7558647 4,18.2919622 4,33.7558647 C4,49.2197672 16.5360975,61.7558647 32,61.7558647 C47.4639025,61.7558647 60,49.2197672 60,33.7558647 C60,22.6181124 53.4958174,12.9996363 44.0791053,8.48954355"/>
</svg>
