<svg xmlns="http://www.w3.org/2000/svg" viewBox="0 0 548 160"><defs><style>.cls-1{fill:#fff;}.cls-2{fill:#00a0ff;}.cls-3{fill:#00c7d9;}.cls-4{fill:#006eff;}</style></defs><title>资源 1</title><g id="图层_2" data-name="图层 2"><g id="图层_1-2" data-name="图层 1"><path class="cls-1" d="M240,47v58a8,8,0,0,1-8,8H200a8,8,0,0,1-8-8V35H180v70a20,20,0,0,0,20,20h32a20,20,0,0,0,20-20V35H240Z"/><polygon class="cls-1" points="392 35 392 47 392 74 392 86 392 113 392 125 404 125 464 125 464 113 404 113 404 86 464 86 464 74 404 74 404 47 464 47 464 35 404 35 392 35"/><path class="cls-1" d="M548,55a20,20,0,0,0-20-20H476v90h52a20,20,0,0,0,20-20V94a19.94,19.94,0,0,0-5.73-14A19.94,19.94,0,0,0,548,66Zm-60-8h40a8,8,0,0,1,8,8V66a8,8,0,0,1-8,8H488Zm48,58a8,8,0,0,1-8,8H488V86h40a8,8,0,0,1,8,8Z"/><polygon class="cls-1" points="368 116.55 325.41 74 318.52 74 276 116.48 276 35 264 35 264 125 275.89 125 276 125 284.45 125 321.96 87.52 359.48 125 368 125 368.04 125 380 125 380 35 368 35 368 116.55"/><polygon class="cls-2" points="46.67 42.88 25.85 54.77 35 60 44.15 65.23 64.96 53.33 46.67 42.88"/><polygon class="cls-2" points="20.81 28.11 0 40 20.81 51.89 41.63 40 20.81 28.11"/><polygon class="cls-3" points="70 56.21 49.18 68.11 70 80 90.82 68.11 70 56.21"/><polygon class="cls-2" points="119.19 51.89 140 40 119.19 28.11 98.37 40 119.19 51.89"/><polygon class="cls-3" points="46.67 37.12 64.96 26.67 44.15 14.77 35 20 25.85 25.23 46.67 37.12"/><polygon class="cls-3" points="70 23.79 90.81 11.89 70 0 49.19 11.89 70 23.79"/><polygon class="cls-3" points="93.33 37.12 114.15 25.23 105 20 95.85 14.77 75.04 26.67 93.33 37.12"/><polygon class="cls-4" points="140 40 119.19 51.89 119.19 51.89 119.19 51.89 119.19 108.86 70 136.97 20 108.39 20 71.61 0 60 0 120 70 160 140 120 140 40 140 40"/><polyline class="cls-3" points="90.82 98.11 70 110 70 80 90.82 68.11"/></g></g></svg>