<?xml version="1.0" encoding="UTF-8"?>
<svg width="32px" height="32px" viewBox="0 0 32 32" version="1.1" xmlns="http://www.w3.org/2000/svg" xmlns:xlink="http://www.w3.org/1999/xlink">
    <!-- Generator: Sketch 49.3 (51167) - http://www.bohemiancoding.com/sketch -->
    <title>包管理大图</title>
    <desc>Created with Sketch.</desc>
    <defs></defs>
    <g id="包管理大图" stroke="none" stroke-width="1" fill="none" fill-rule="evenodd">
        <path d="M28.9,14 C27.9,7.8 22.5,3 16,3 C8.8,3 3,8.8 3,16 C3,23.2 8.8,29 16,29 C22.5,29 27.9,24.2 28.9,18 L30.9,18 C29.9,25.4 23.7,31 16,31 C7.7,31 1,24.3 1,16 C1,7.7 7.7,1 16,1 C23.6,1 29.9,6.7 30.9,14 L28.9,14 Z M9,9 L15,9 L17,11.001 L23,11.001 L23,23 L9,23 L9,9 Z M21,21.001 L21,13.001 L11,13.001 L11,21.001 L21,21.001 Z M13,15 L19,15 L19,17 L13,17 L13,15 Z" id="Combined-Shape" fill="#888888"></path>
    </g>
</svg>