<svg t="1657100845314" class="icon" viewBox="0 0 1024 1024" version="1.1"
    xmlns="http://www.w3.org/2000/svg" p-id="1716" width="32" height="32">
    <path d="M893.456828 709.055005" p-id="1717" fill="#ffffff"></path>
    <path d="M491.889987 337.939709" p-id="1718" fill="#ffffff"></path>
    <path d="M568.154951 338.993714" p-id="1719" fill="#ffffff"></path>
    <path d="M917.865751 326.491982c-45.87891-121.456213-136.028093-146.947793-203.566302-146.947793-31.697933 0-60.421114 5.602601-81.369216 11.278881 15.770172-66.923202 67.01837-99.352799 69.443605-100.856036 7.964392-4.828982 11.957333-14.202467 9.912767-23.289426-2.033309-9.097192-9.648754-15.865339-18.914792-16.829294-12.709463-1.324158-25.291013-1.991354-37.396725-1.991354-98.664114 0-158.544923 44.227294-191.397145 81.337493-18.894326 21.329794-31.168883 42.73429-38.614459 58.376549-38.666648-18.215874-74.898851-27.440979-107.97313-27.440979-88.88847 0-136.197962 67.791989-148.790768 103.641475-2.245134 6.396687-1.376347 13.482059 2.361791 19.137873 3.727904 5.666046 9.902534 9.245572 16.669658 9.700943 37.96773 2.51017 61.024865 22.727631 73.659627 39.196721-42.627866 13.386892-75.077929 37.078477-96.694249 70.672596-45.656853 70.926376-24.78243 159.39222-23.871687 163.130358 1.948375 7.954159 8.207939 14.139022 16.182564 15.981996 7.93267 1.864464 16.309454-0.952698 21.551852-7.243985 44.820811-53.779857 92.415806-73.41608 123.214253-80.533175-32.56672 111.86067 52.350298 211.138768 56.353472 215.735459 5.539156 6.343475 14.255679 8.906857 22.357194 6.587022 8.101515-2.340301 14.117532-9.150404 15.420201-17.485233 18.830881-120.132054 64.804958-171.412998 93.940532-192.414311 2.213411 142.055366-31.624255 413.487336-31.994692 416.442644-0.773619 6.17463 1.1328 10.222829 5.252631 14.893198s10.039657 5.180999 16.267499 5.180999l136.570445 0c10.399861 0 19.338441-5.223978 21.298072-15.433504 28.203342-146.630568 1.63115-368.393301-8.928347-444.308295 53.939493 12.561084 111.913882 91.112114 131.114177 122.768091 4.013407 6.630001 11.543917 10.553357 19.031449 10.711969 7.752568-0.169869 14.827707-4.334725 18.555611-11.133571 29.347398-53.652967 35.066657-103.712083 16.966417-148.913565-22.050202-55.082526-74.2951-88.092337-107.941408-104.402815 17.433044-12.624529 41.580001-18.983353 72.145134-18.983353 55.262628 0 110.50479 21.10569 111.055328 21.317515 7.985882 3.070942 17.041118 1.190105 23.109324-4.836145C918.91464 343.517751 920.884504 334.49833 917.865751 326.491982zM778.680758 289.699008c-58.620096 0-102.667288 20.302395-127.397528 58.726519-3.654226 5.666046-4.458545 12.719696-2.171456 19.074428 2.276856 6.354731 7.392364 11.278881 13.820774 13.323447 0.857531 0.275269 85.712127 27.970028 111.267153 91.812055 9.320273 23.289426 9.457396 49.172933 0.445138 77.281107C697.089485 442.376293 623.37767 438.998359 614.523001 438.998359c-4.765537 0-9.532097 0.349971-14.170744 1.048889-5.719258 0.857531-10.866489 3.961218-14.276145 8.631588-3.420913 4.670369-4.828982 8.5487-3.929496 14.267958 0.445138 2.76395 42.23594 274.125311 16.034185 436.830997l-93.835132 0c9.277294-76.747965 36.284391-319.80263 27.874861-431.736978-0.476861-6.375198-3.738138-11.243065-8.928347-14.981203-5.178953-3.749394-11.745509-4.519943-17.951861-2.973728-4.41659 1.101077-99.394754 26.996864-141.143601 189.513238-20.747533-39.123043-40.881083-100.70254-9.06547-161.451112 3.41068-6.491855 3.209088-14.21577-0.381693-20.612457-3.590781-6.396687-10.251481-10.528797-17.570167-11.015891 0 0-1.334391-0.069585-3.854794-0.069585-14.986319 0-84.398202 3.587712-154.09661 65.448618 0.041956-25.587771 4.553713-58.288544 22.590508-86.173638 19.61371-30.321586 52.318576-50.018184 97.202832-58.534138 6.269797-1.186012 11.70253-5.082762 14.83794-10.642384 3.145643-5.560646 3.674693-12.211113 1.451048-18.205641-1.090844-2.955308-24.623817-64.317864-92.564185-83.624583 14.922874-21.89159 44.417629-51.206242 95.243201-51.206242 31.836079 0 68.448952 11.151991 108.831684 33.138748 5.729491 3.113921 12.571317 3.452635 18.619056 0.974188 6.04774-2.488681 10.654664-7.593955 12.539594-13.852496 1.556449-5.16872 38.264489-121.614825 178.084954-131.824351-23.62814 27.726481-48.442292 70.545706-50.89925 129.547495-0.317225 7.455809 3.251044 14.541181 9.404184 18.767436 6.142907 4.226255 14.075577 4.998851 20.917402 2.023076 0.445138-0.190335 45.339628-19.35993 98.812493-19.35993 62.782905 0 110.462834 25.682939 142.267191 76.487022C834.368058 294.242488 806.820656 289.699008 778.680758 289.699008z" p-id="1720" fill="#ffffff"></path>
</svg>